<svg xmlns="http://www.w3.org/2000/svg" viewBox="0 0 366.28 90.29"><defs><style>.cls-1,.cls-2{fill:#1d327b;fill-rule:evenodd;}.cls-2{stroke:#fff;stroke-miterlimit:10;stroke-width:0.65px;}.cls-3{fill:#fff;}.cls-4{fill:#253674;}.cls-5{fill:#f4ab00;}.cls-6{fill:#e5007e;}</style></defs><g id="Capa_2" data-name="Capa 2"><g id="Capa_4" data-name="Capa 4"><path class="cls-1" d="M94,83.83a4.6,4.6,0,0,1-3.71,1.66H52.1a4.6,4.6,0,0,1-3.71-1.66H0v3.23c0,1.78,1.92,3.23,4.26,3.23H138.14c2.34,0,4.25-1.45,4.25-3.23V83.83Z"/><path class="cls-1" d="M99.58,0H26.11C20.29,0,15.53,3.75,15.53,8.33V81.22H126.86v-.36h0V8.29c0-4.56-4.76-8.29-10.58-8.29H99.61"/><path class="cls-2" d="M99.61,6.13h16.67c1.5,0,2.76,1,2.76,2.16V74.73H23.35V8.33c0-1.18,1.26-2.17,2.76-2.17h73.5v0h0"/><path class="cls-3" d="M96.77,34,75.85,15.32l-.25-.2a9.92,9.92,0,0,0-5.75-1.88,10.35,10.35,0,0,0-6.16,2.1L42.63,34.78c-3.93,3.81-2,8.48-.43,10.42l.2.21c.64.64,15.73,15.42,21.07,19.32a11.2,11.2,0,0,0,6.75,2.2,14.78,14.78,0,0,0,7.57-2.22l.33-.26c.63-.58,15.33-14.11,19.22-18.29C101.65,41.52,98.85,36.18,96.77,34ZM67.1,19.22a5.17,5.17,0,0,1,2.75-.89,4.48,4.48,0,0,1,2.55.84L85.26,30.66c-1.18-.1-2.5-.19-3.9-.25a12.94,12.94,0,0,0-2.26-.26c-2.26,0-1.93-.83-3-2s-2.9-.1-3.86-1.25a3.93,3.93,0,0,0-3.32-1.24,24.64,24.64,0,0,1-3.65-.42c-1.08-.09-3.75,4.47-4.22,5.27-2.23.15-4.54.36-6.9.63ZM93.43,42.75c-3.52,3.78-17,16.2-18.75,17.83a9.51,9.51,0,0,1-4.46,1.27,5.84,5.84,0,0,1-3.57-1.18C61.85,57.18,47.74,43.41,46.26,42c-.33-.44-1.4-2.15,0-3.55l4.15-3.83c2.81-.4,5.57-.71,8.25-.94-.14.45.6.54.68,1.28.1.93,4.93,5.29,6.42,5.39s.77,2.39.33,3.73-.76,5.5-.22,6.64-.11,4.77-.11,6,2.91,2.79,3.32,2.9,1-.52,1.4-1.35-.42-1.25-1-1.55.23-.63.65-1.36a6.91,6.91,0,0,0,.32-3.1c0-1.15,2.68-2,3.32-2.08s.87-.83,1.08-1.45a3.21,3.21,0,0,1,2-1.77c1.06-.3,1.18-1.66,1.18-2.58s2.35-1.77,3.4-1.87a2.34,2.34,0,0,0,2-2.18A2.85,2.85,0,0,1,85,37.51c1.19-.73,1.72-2.8,1-3.11-.3-.14-.35-.44-.28-.8l3.24.3L93,37.54C93.44,38,95.5,40.52,93.43,42.75Z"/><path class="cls-4" d="M169.42.85h10.69a7,7,0,0,1,4.1,1,3,3,0,0,1,1.43,2.53,2.8,2.8,0,0,1-1,2.17,4.86,4.86,0,0,1-2,1,5.67,5.67,0,0,1,2.93,1.27,3,3,0,0,1,.94,2.27,3.19,3.19,0,0,1-.67,2A4.58,4.58,0,0,1,184,14.47a7.78,7.78,0,0,1-2.17.46c-1.29.13-2.14.2-2.56.2h-9.86Zm5.76,5.6h2.49a3.53,3.53,0,0,0,1.85-.35,1.17,1.17,0,0,0,.53-1,1.11,1.11,0,0,0-.53-1,3.35,3.35,0,0,0-1.82-.35h-2.52Zm0,5.61h2.91a3.91,3.91,0,0,0,2.08-.4,1.24,1.24,0,0,0,.61-1.09,1.17,1.17,0,0,0-.6-1,4.22,4.22,0,0,0-2.1-.38h-2.9Z"/><path class="cls-4" d="M188.69,8a6.48,6.48,0,0,1,2.52-5.44,11.23,11.23,0,0,1,7-1.95q4.62,0,7.11,1.91a6.4,6.4,0,0,1,2.5,5.36A7.22,7.22,0,0,1,206.75,12a7.08,7.08,0,0,1-3.15,2.49,13.09,13.09,0,0,1-5.14.89,14.87,14.87,0,0,1-5.17-.77A7.31,7.31,0,0,1,190,12.17,6.72,6.72,0,0,1,188.69,8Zm5.71,0a4,4,0,0,0,1,3.11,4.8,4.8,0,0,0,5.68,0,4.42,4.42,0,0,0,1-3.32,3.71,3.71,0,0,0-1.06-2.95A4.14,4.14,0,0,0,198.22,4a4,4,0,0,0-2.77.94A4.06,4.06,0,0,0,194.4,8Z"/><path class="cls-4" d="M210.83.85h5.71V11.61h8.91v3.52H210.83Z"/><path class="cls-4" d="M228.2.85h5.72V15.13H228.2Z"/><path class="cls-4" d="M236.12.85h6l4.16,10.28L250.36.85h5.79l-6.86,14.28H243.1Z"/><path class="cls-4" d="M267.82,12.77h-6.48l-.9,2.36h-5.83L261.56.85h6.22l7,14.28h-6Zm-1.18-3.09-2-5.13-2,5.13Z"/><path class="cls-4" d="M276.54,15.13V.85h9.51a17.25,17.25,0,0,1,4.05.36,4.3,4.3,0,0,1,2.25,1.3,3.28,3.28,0,0,1,.86,2.31,3.34,3.34,0,0,1-.65,2.05,4.69,4.69,0,0,1-1.81,1.39,8,8,0,0,1-2,.57,6.53,6.53,0,0,1,1.48.52,5.56,5.56,0,0,1,.92.75,6.31,6.31,0,0,1,.8.89l2.76,4.14h-6.45l-3.05-4.36a3.46,3.46,0,0,0-1-1.1,2.84,2.84,0,0,0-1.4-.34h-.51v5.8Zm5.73-8.49h2.41a11.26,11.26,0,0,0,1.51-.2,1.58,1.58,0,0,0,.93-.45,1.12,1.12,0,0,0,.36-.82,1.18,1.18,0,0,0-.57-1.06,4.22,4.22,0,0,0-2.13-.37h-2.51Z"/><path class="cls-4" d="M296.69.85h5.72V15.13h-5.72Z"/><path class="cls-4" d="M317.79,12.77h-6.48l-.91,2.36h-5.82L311.52.85h6.23l6.94,14.28h-6ZM316.6,9.68l-2-5.13-2,5.13Z"/><path class="cls-4" d="M326.47.85h5.33l6.95,7.9V.85h5.39V15.13h-5.39l-6.91-7.84v7.84h-5.37Z"/><path class="cls-4" d="M347.13,8a6.48,6.48,0,0,1,2.52-5.44,11.23,11.23,0,0,1,7-1.95q4.62,0,7.11,1.91a6.37,6.37,0,0,1,2.5,5.36A7.22,7.22,0,0,1,365.19,12,7.08,7.08,0,0,1,362,14.48a13.09,13.09,0,0,1-5.14.89,14.91,14.91,0,0,1-5.17-.77,7.23,7.23,0,0,1-3.32-2.43A6.66,6.66,0,0,1,347.13,8Zm5.71,0a4,4,0,0,0,1,3.11,4.8,4.8,0,0,0,5.68,0,4.42,4.42,0,0,0,1-3.32,3.75,3.75,0,0,0-1.05-2.95A4.19,4.19,0,0,0,356.66,4a4,4,0,0,0-2.77.94A4.06,4.06,0,0,0,352.84,8Z"/><path class="cls-4" d="M169.56,85.85l1.76-8.46h1.13l-1.56,7.5h4.39l-.2,1Z"/><path class="cls-4" d="M176.23,83.52a4.26,4.26,0,0,1,1.06-3,2.91,2.91,0,0,1,2.28-1,2.4,2.4,0,0,1,1.79.69,2.59,2.59,0,0,1,.68,1.87,4.65,4.65,0,0,1-.43,2,3.19,3.19,0,0,1-1.22,1.39,3.1,3.1,0,0,1-1.65.48,2.8,2.8,0,0,1-1.3-.3,2.1,2.1,0,0,1-.9-.87A2.67,2.67,0,0,1,176.23,83.52Zm1.05-.1a1.9,1.9,0,0,0,.41,1.31,1.38,1.38,0,0,0,1.06.45,1.74,1.74,0,0,0,.66-.14,2,2,0,0,0,.61-.41,2.92,2.92,0,0,0,.48-.63,3.29,3.29,0,0,0,.32-.77,3.6,3.6,0,0,0,.18-1.09,1.82,1.82,0,0,0-.42-1.29,1.32,1.32,0,0,0-1.05-.46,1.82,1.82,0,0,0-.89.23,2.49,2.49,0,0,0-.73.69,3,3,0,0,0-.48,1A4.49,4.49,0,0,0,177.28,83.42Z"/><path class="cls-4" d="M189.86,85.15a2.58,2.58,0,0,1-1.72.83,1.89,1.89,0,0,1-1.44-.64,2.69,2.69,0,0,1-.59-1.85,4.62,4.62,0,0,1,.45-2.06A3.41,3.41,0,0,1,187.7,80a2.64,2.64,0,0,1,1.44-.46,1.79,1.79,0,0,1,1,.32,2.24,2.24,0,0,1,.74.94l.23-1.12h.9l-1.76,8.47h-1.05Zm-2.71-1.8a2.05,2.05,0,0,0,.37,1.35,1.18,1.18,0,0,0,.94.43,1.52,1.52,0,0,0,.95-.39,2.78,2.78,0,0,0,.79-1.18,4,4,0,0,0,.31-1.52,1.65,1.65,0,0,0-.39-1.17,1.19,1.19,0,0,0-.94-.43,1.4,1.4,0,0,0-1,.36,3,3,0,0,0-.84,1.33A3.62,3.62,0,0,0,187.15,83.35Z"/><path class="cls-4" d="M196.65,84.74A3.06,3.06,0,0,1,194.4,86a1.61,1.61,0,0,1-1.15-.4,1.3,1.3,0,0,1-.43-1,7.34,7.34,0,0,1,.19-1.32l.74-3.54h1.05L194,83.64a3.92,3.92,0,0,0-.11.76.7.7,0,0,0,.21.54.89.89,0,0,0,.62.19,1.88,1.88,0,0,0,.86-.21,2.25,2.25,0,0,0,.72-.58,2.88,2.88,0,0,0,.49-.86,6.59,6.59,0,0,0,.3-1.11l.55-2.65h1l-1.28,6.13h-1Z"/><path class="cls-4" d="M203.54,83.76l1,.11a3.13,3.13,0,0,1-1,1.43,2.75,2.75,0,0,1-1.88.68,2.55,2.55,0,0,1-1.25-.31,2,2,0,0,1-.86-.91,3,3,0,0,1-.3-1.37,4.5,4.5,0,0,1,.46-2,3.36,3.36,0,0,1,1.21-1.4,2.92,2.92,0,0,1,1.6-.46,2.33,2.33,0,0,1,1.75.68,2.6,2.6,0,0,1,.65,1.86,5.82,5.82,0,0,1-.08.92h-4.51a2.45,2.45,0,0,0,.37,1.64,1.24,1.24,0,0,0,1,.45,1.86,1.86,0,0,0,1-.35A2.25,2.25,0,0,0,203.54,83.76Zm-3-1.51h3.43c0-.11,0-.19,0-.23a1.71,1.71,0,0,0-.39-1.21,1.32,1.32,0,0,0-1-.42,1.85,1.85,0,0,0-1.22.47A2.7,2.7,0,0,0,200.51,82.25Z"/><path class="cls-4" d="M209.33,83.11l1.11-.1v.29a1.82,1.82,0,0,0,.22.9,1.49,1.49,0,0,0,.75.63,3,3,0,0,0,1.23.22,2.41,2.41,0,0,0,1.55-.44,1.3,1.3,0,0,0,.53-1,1.1,1.1,0,0,0-.28-.73,5.56,5.56,0,0,0-1.57-.87,10.94,10.94,0,0,1-1.37-.67,2.72,2.72,0,0,1-.84-.81,1.91,1.91,0,0,1-.27-1,2.05,2.05,0,0,1,.36-1.18,2.27,2.27,0,0,1,1-.8,4.2,4.2,0,0,1,1.55-.27,3.94,3.94,0,0,1,1.74.34,2.29,2.29,0,0,1,1.35,2v.17l-1.09.09a1.66,1.66,0,0,0-.07-.56,1.38,1.38,0,0,0-.35-.6,1.88,1.88,0,0,0-.67-.39,2.83,2.83,0,0,0-.95-.14,2.24,2.24,0,0,0-1.44.41,1,1,0,0,0-.39.84,1,1,0,0,0,.16.56,1.79,1.79,0,0,0,.59.48c.2.11.67.33,1.42.66a9.79,9.79,0,0,1,1.26.64,2.18,2.18,0,0,1,.71.74,2,2,0,0,1,.25,1,2.13,2.13,0,0,1-.42,1.27,2.76,2.76,0,0,1-1.16.89,4.24,4.24,0,0,1-1.69.32,4,4,0,0,1-2.34-.63A2.54,2.54,0,0,1,209.33,83.11Z"/><path class="cls-4" d="M221,84.74A3.09,3.09,0,0,1,218.7,86a1.6,1.6,0,0,1-1.14-.4,1.28,1.28,0,0,1-.44-1,6.73,6.73,0,0,1,.2-1.32l.73-3.54h1l-.82,3.92a3.92,3.92,0,0,0-.11.76.71.71,0,0,0,.22.54.87.87,0,0,0,.62.19,1.87,1.87,0,0,0,.85-.21,2.25,2.25,0,0,0,.72-.58,2.9,2.9,0,0,0,.5-.86,8.11,8.11,0,0,0,.29-1.11l.55-2.65H223l-1.28,6.13h-1Z"/><path class="cls-4" d="M227.84,83.76l1,.11a3.06,3.06,0,0,1-1,1.43A2.74,2.74,0,0,1,226,86a2.48,2.48,0,0,1-1.24-.31,2.07,2.07,0,0,1-.87-.91,3,3,0,0,1-.3-1.37,4.37,4.37,0,0,1,.47-2,3.34,3.34,0,0,1,1.2-1.4,2.92,2.92,0,0,1,1.6-.46,2.33,2.33,0,0,1,1.75.68,2.6,2.6,0,0,1,.65,1.86,4.84,4.84,0,0,1-.08.92h-4.51c0,.12,0,.23,0,.33a2,2,0,0,0,.39,1.31,1.26,1.26,0,0,0,1,.45,1.91,1.91,0,0,0,1.06-.35A2.3,2.3,0,0,0,227.84,83.76Zm-3-1.51h3.44V82a1.71,1.71,0,0,0-.39-1.21,1.32,1.32,0,0,0-1-.42,1.85,1.85,0,0,0-1.22.47A2.7,2.7,0,0,0,224.81,82.25Z"/><path class="cls-4" d="M229.91,85.85l1.28-6.13h.95l-.22,1.07a4.86,4.86,0,0,1,1.15-.92,2.32,2.32,0,0,1,1.1-.29,1.65,1.65,0,0,1,1.16.4,1.4,1.4,0,0,1,.43,1.08,6.06,6.06,0,0,1-.15,1.08l-.78,3.71h-1.05L234.6,82a4.38,4.38,0,0,0,.12-.83.64.64,0,0,0-.21-.5.86.86,0,0,0-.61-.19,2,2,0,0,0-1.43.58,3.66,3.66,0,0,0-.92,2L231,85.85Zm2-7a2.14,2.14,0,0,1,.47-1,1,1,0,0,1,.7-.27,1.5,1.5,0,0,1,.37,0,4.05,4.05,0,0,1,.63.25,1.93,1.93,0,0,0,.62.19.36.36,0,0,0,.24-.09.75.75,0,0,0,.17-.36h.7a1.53,1.53,0,0,1-.38.93,1,1,0,0,1-.76.33,1.55,1.55,0,0,1-.58-.15,3.86,3.86,0,0,0-1-.34.47.47,0,0,0-.31.11.79.79,0,0,0-.17.38Z"/><path class="cls-4" d="M240.61,85.08a4,4,0,0,1-1,.69,2.72,2.72,0,0,1-1.07.21,1.9,1.9,0,0,1-1.37-.49,1.7,1.7,0,0,1-.52-1.28,1.72,1.72,0,0,1,.24-.91,1.87,1.87,0,0,1,.61-.64,3,3,0,0,1,.95-.34,12.86,12.86,0,0,1,1.34-.11,4.34,4.34,0,0,0,1.41-.21,2.69,2.69,0,0,0,.12-.71.68.68,0,0,0-.27-.57,1.68,1.68,0,0,0-1.06-.28,1.76,1.76,0,0,0-1.07.29,1.6,1.6,0,0,0-.61.82l-1.06-.09a2.74,2.74,0,0,1,1-1.39,3,3,0,0,1,1.76-.49,2.76,2.76,0,0,1,1.8.54,1.28,1.28,0,0,1,.51,1,5.69,5.69,0,0,1-.14,1.14l-.34,1.52a5.7,5.7,0,0,0-.17,1.19,4.47,4.47,0,0,0,.13.83h-1A4.21,4.21,0,0,1,240.61,85.08Zm.39-2.34a3.23,3.23,0,0,1-.47.14q-.25,0-.84.09a6.91,6.91,0,0,0-1.28.21,1.08,1.08,0,0,0-.57.39,1,1,0,0,0-.19.6.92.92,0,0,0,.3.72,1.21,1.21,0,0,0,.86.29,1.92,1.92,0,0,0,1-.28,2,2,0,0,0,.76-.76A4.47,4.47,0,0,0,241,82.74Z"/><path class="cls-4" d="M243.15,83.75l1-.06a1.83,1.83,0,0,0,.14.77,1.11,1.11,0,0,0,.51.52,1.79,1.79,0,0,0,.86.2,1.66,1.66,0,0,0,1-.28.77.77,0,0,0,.14-1.17,3.2,3.2,0,0,0-1-.59c-.55-.24-.91-.41-1.06-.5a1.64,1.64,0,0,1-.58-.56,1.38,1.38,0,0,1-.2-.73,1.61,1.61,0,0,1,.58-1.25,2.29,2.29,0,0,1,1.61-.52,2.61,2.61,0,0,1,1.76.53,1.9,1.9,0,0,1,.63,1.41l-1,.07a1.2,1.2,0,0,0-.4-.88,1.54,1.54,0,0,0-1-.32,1.26,1.26,0,0,0-.84.25.69.69,0,0,0-.3.53.63.63,0,0,0,.26.51,4.28,4.28,0,0,0,.89.46,6.17,6.17,0,0,1,1.51.82,1.57,1.57,0,0,1,.5,1.17,1.69,1.69,0,0,1-.28.89,1.9,1.9,0,0,1-.86.7,3.13,3.13,0,0,1-1.35.26,3,3,0,0,1-1.8-.52A1.87,1.87,0,0,1,243.15,83.75Z"/><path class="cls-4" d="M249.25,85.85l.25-1.19h1.18l-.25,1.19Z"/><path class="cls-4" d="M255.61,85.85l1.76-8.46h1.13l-1.56,7.5h4.39l-.2,1Z"/><path class="cls-4" d="M262.28,83.52a4.26,4.26,0,0,1,1.06-3,2.91,2.91,0,0,1,2.28-1,2.41,2.41,0,0,1,1.79.69,2.58,2.58,0,0,1,.67,1.87,4.64,4.64,0,0,1-.42,2,3.19,3.19,0,0,1-1.22,1.39,3.13,3.13,0,0,1-1.66.48,2.83,2.83,0,0,1-1.3-.3,2.08,2.08,0,0,1-.89-.87A2.57,2.57,0,0,1,262.28,83.52Zm1-.1a1.86,1.86,0,0,0,.42,1.31,1.38,1.38,0,0,0,1.06.45,1.74,1.74,0,0,0,.66-.14,2,2,0,0,0,.61-.41,2.92,2.92,0,0,0,.48-.63,3.78,3.78,0,0,0,.32-.77,3.6,3.6,0,0,0,.18-1.09,1.82,1.82,0,0,0-.42-1.29,1.35,1.35,0,0,0-1.05-.46,1.76,1.76,0,0,0-.89.23,2.38,2.38,0,0,0-.73.69,3,3,0,0,0-.48,1A4.55,4.55,0,0,0,263.32,83.42Z"/><path class="cls-4" d="M275.91,85.15a2.58,2.58,0,0,1-1.72.83,1.86,1.86,0,0,1-1.44-.64,2.69,2.69,0,0,1-.59-1.85,4.62,4.62,0,0,1,.45-2.06A3.41,3.41,0,0,1,273.75,80a2.6,2.6,0,0,1,1.43-.46,1.74,1.74,0,0,1,1,.32,2.09,2.09,0,0,1,.74.94l.24-1.12h.9l-1.76,8.47h-1.05Zm-2.72-1.8a2.05,2.05,0,0,0,.38,1.35,1.17,1.17,0,0,0,.93.43,1.52,1.52,0,0,0,1-.39,2.87,2.87,0,0,0,.79-1.18,4.25,4.25,0,0,0,.31-1.52,1.65,1.65,0,0,0-.39-1.17,1.21,1.21,0,0,0-.95-.43,1.39,1.39,0,0,0-1,.36,3,3,0,0,0-.84,1.33A3.65,3.65,0,0,0,273.19,83.35Z"/><path class="cls-4" d="M282.7,84.74A3.07,3.07,0,0,1,280.45,86a1.61,1.61,0,0,1-1.15-.4,1.3,1.3,0,0,1-.43-1,7.34,7.34,0,0,1,.19-1.32l.74-3.54h1L280,83.64a3.76,3.76,0,0,0-.1.76.7.7,0,0,0,.21.54.89.89,0,0,0,.62.19,1.91,1.91,0,0,0,.86-.21,2.25,2.25,0,0,0,.72-.58,2.88,2.88,0,0,0,.49-.86,7.75,7.75,0,0,0,.3-1.11l.55-2.65h1l-1.28,6.13h-1Z"/><path class="cls-4" d="M289.59,83.76l1,.11a3,3,0,0,1-1,1.43,2.75,2.75,0,0,1-1.88.68,2.55,2.55,0,0,1-1.25-.31,2,2,0,0,1-.86-.91,3,3,0,0,1-.3-1.37,4.36,4.36,0,0,1,.46-2A3.34,3.34,0,0,1,287,80a3,3,0,0,1,1.6-.46,2.32,2.32,0,0,1,1.75.68,2.56,2.56,0,0,1,.66,1.86,5.82,5.82,0,0,1-.08.92h-4.51a2,2,0,0,0,0,.33,2,2,0,0,0,.4,1.31,1.22,1.22,0,0,0,1,.45,1.91,1.91,0,0,0,1.06-.35A2.25,2.25,0,0,0,289.59,83.76Zm-3-1.51H290c0-.11,0-.19,0-.23a1.71,1.71,0,0,0-.39-1.21,1.34,1.34,0,0,0-1-.42,1.83,1.83,0,0,0-1.22.47A2.71,2.71,0,0,0,286.55,82.25Z"/><path class="cls-4" d="M301.69,85.16a5.27,5.27,0,0,0,1.15,1l-.5.67A6.94,6.94,0,0,1,301,85.6a3.82,3.82,0,0,1-1.63.4,4.73,4.73,0,0,1-1.37-.23,3.21,3.21,0,0,1-1.25-.72,3.48,3.48,0,0,1-.79-1.23,4.68,4.68,0,0,1-.28-1.67,5.48,5.48,0,0,1,.42-2.11,4.86,4.86,0,0,1,.91-1.43,4.34,4.34,0,0,1,1.24-.93,4.22,4.22,0,0,1,1.91-.43,3.43,3.43,0,0,1,2.57,1,3.84,3.84,0,0,1,1,2.77,5.33,5.33,0,0,1-.53,2.35A5,5,0,0,1,301.69,85.16Zm-.69-.72A4,4,0,0,0,302.13,83a4.71,4.71,0,0,0,.43-2,2.85,2.85,0,0,0-.7-2,2.29,2.29,0,0,0-1.73-.75,3,3,0,0,0-1.64.49,3.45,3.45,0,0,0-1.26,1.47,4.63,4.63,0,0,0-.48,2.1,2.78,2.78,0,0,0,.89,2.2,2.24,2.24,0,0,0,1.48.61,3.08,3.08,0,0,0,1.13-.2,5.21,5.21,0,0,0-1.07-.77l.4-.7a3.42,3.42,0,0,1,.68.38A6.45,6.45,0,0,1,301,84.44Z"/><path class="cls-4" d="M308.31,84.74A3.06,3.06,0,0,1,306.06,86a1.61,1.61,0,0,1-1.15-.4,1.3,1.3,0,0,1-.43-1,7.34,7.34,0,0,1,.19-1.32l.74-3.54h1l-.82,3.92a3.92,3.92,0,0,0-.11.76.7.7,0,0,0,.21.54.89.89,0,0,0,.62.19,1.88,1.88,0,0,0,.86-.21,2.25,2.25,0,0,0,.72-.58,2.88,2.88,0,0,0,.49-.86,6.59,6.59,0,0,0,.3-1.11l.55-2.65h1.05l-1.28,6.13h-1Z"/><path class="cls-4" d="M310.66,85.85l1.28-6.13H313l-1.29,6.13Zm1.52-7.28.25-1.18h1l-.25,1.18Z"/><path class="cls-4" d="M317.82,83.76l1,.11a3.06,3.06,0,0,1-1,1.43A2.73,2.73,0,0,1,316,86a2.52,2.52,0,0,1-1.25-.31,2.07,2.07,0,0,1-.87-.91,3,3,0,0,1-.3-1.37,4.37,4.37,0,0,1,.47-2,3.34,3.34,0,0,1,1.2-1.4,3,3,0,0,1,1.6-.46,2.33,2.33,0,0,1,1.75.68,2.56,2.56,0,0,1,.65,1.86,4.84,4.84,0,0,1-.08.92h-4.51c0,.12,0,.23,0,.33a1.9,1.9,0,0,0,.4,1.31,1.22,1.22,0,0,0,1,.45,1.91,1.91,0,0,0,1.06-.35A2.3,2.3,0,0,0,317.82,83.76Zm-3-1.51h3.44V82a1.71,1.71,0,0,0-.39-1.21,1.32,1.32,0,0,0-1-.42,1.87,1.87,0,0,0-1.22.47A2.7,2.7,0,0,0,314.79,82.25Z"/><path class="cls-4" d="M319.9,85.85l1.28-6.13h.92L321.84,81a4.11,4.11,0,0,1,.93-1,1.5,1.5,0,0,1,.92-.34,1.82,1.82,0,0,1,.77.23l-.43,1a.94.94,0,0,0-.59-.2,1.61,1.61,0,0,0-1.13.61,4.72,4.72,0,0,0-.9,2.2l-.52,2.46Z"/><path class="cls-4" d="M328.33,83.76l1,.11a3,3,0,0,1-1,1.43,2.75,2.75,0,0,1-1.88.68,2.55,2.55,0,0,1-1.25-.31,2,2,0,0,1-.86-.91,3,3,0,0,1-.3-1.37,4.36,4.36,0,0,1,.46-2,3.29,3.29,0,0,1,1.21-1.4,2.91,2.91,0,0,1,1.59-.46,2.32,2.32,0,0,1,1.75.68,2.56,2.56,0,0,1,.66,1.86,5.82,5.82,0,0,1-.08.92h-4.51a2,2,0,0,0,0,.33,2,2,0,0,0,.4,1.31,1.24,1.24,0,0,0,1,.45,1.88,1.88,0,0,0,1-.35A2.25,2.25,0,0,0,328.33,83.76Zm-3-1.51h3.44c0-.11,0-.19,0-.23a1.71,1.71,0,0,0-.39-1.21,1.34,1.34,0,0,0-1-.42,1.83,1.83,0,0,0-1.22.47A2.78,2.78,0,0,0,325.29,82.25Z"/><path class="cls-4" d="M330.5,83.75l1-.06a2,2,0,0,0,.14.77,1.11,1.11,0,0,0,.51.52,1.86,1.86,0,0,0,.87.2,1.68,1.68,0,0,0,1-.28.8.8,0,0,0,.34-.65.85.85,0,0,0-.2-.52,3.28,3.28,0,0,0-1.05-.59,11.42,11.42,0,0,1-1.05-.5,1.68,1.68,0,0,1-.59-.56,1.37,1.37,0,0,1-.19-.73,1.63,1.63,0,0,1,.57-1.25,2.34,2.34,0,0,1,1.62-.52,2.62,2.62,0,0,1,1.76.53,1.86,1.86,0,0,1,.62,1.41l-1,.07a1.19,1.19,0,0,0-.39-.88,1.59,1.59,0,0,0-1-.32,1.26,1.26,0,0,0-.84.25.69.69,0,0,0-.3.53.66.66,0,0,0,.26.51,4.79,4.79,0,0,0,.9.46A6.17,6.17,0,0,1,335,83a1.56,1.56,0,0,1,.49,1.17,1.61,1.61,0,0,1-.28.89,1.88,1.88,0,0,1-.85.7A3.13,3.13,0,0,1,333,86a3.07,3.07,0,0,1-1.81-.52A1.87,1.87,0,0,1,330.5,83.75Z"/><path class="cls-4" d="M340,83.11l1.11-.1,0,.29a1.83,1.83,0,0,0,.23.9,1.5,1.5,0,0,0,.74.63,3.12,3.12,0,0,0,1.24.22,2.42,2.42,0,0,0,1.55-.44,1.33,1.33,0,0,0,.53-1,1.1,1.1,0,0,0-.28-.73,5.67,5.67,0,0,0-1.58-.87,10.61,10.61,0,0,1-1.36-.67,2.72,2.72,0,0,1-.84-.81,1.91,1.91,0,0,1-.27-1,2.12,2.12,0,0,1,.35-1.18,2.27,2.27,0,0,1,1.05-.8,4.25,4.25,0,0,1,1.56-.27,4,4,0,0,1,1.74.34,2.33,2.33,0,0,1,1,.92,2.36,2.36,0,0,1,.32,1.11,1.31,1.31,0,0,1,0,.17l-1.09.09a2,2,0,0,0-.06-.56,1.51,1.51,0,0,0-.36-.6,1.72,1.72,0,0,0-.67-.39,2.77,2.77,0,0,0-.94-.14,2.21,2.21,0,0,0-1.44.41,1,1,0,0,0-.39.84,1,1,0,0,0,.16.56,1.73,1.73,0,0,0,.58.48c.2.11.68.33,1.43.66a10.2,10.2,0,0,1,1.25.64,2.09,2.09,0,0,1,.71.74,1.92,1.92,0,0,1,.25,1,2.13,2.13,0,0,1-.42,1.27,2.73,2.73,0,0,1-1.15.89,4.31,4.31,0,0,1-1.69.32,4,4,0,0,1-2.35-.63A2.54,2.54,0,0,1,340,83.11Z"/><path class="cls-4" d="M352,83.76l1,.11a3,3,0,0,1-1,1.43,2.75,2.75,0,0,1-1.88.68,2.55,2.55,0,0,1-1.25-.31,2,2,0,0,1-.86-.91,3,3,0,0,1-.3-1.37,4.36,4.36,0,0,1,.46-2,3.34,3.34,0,0,1,1.2-1.4,3,3,0,0,1,1.6-.46,2.32,2.32,0,0,1,1.75.68,2.56,2.56,0,0,1,.66,1.86,5.82,5.82,0,0,1-.08.92h-4.51a2,2,0,0,0,0,.33,2,2,0,0,0,.4,1.31,1.22,1.22,0,0,0,1,.45,1.91,1.91,0,0,0,1.06-.35A2.25,2.25,0,0,0,352,83.76Zm-3-1.51h3.44c0-.11,0-.19,0-.23a1.71,1.71,0,0,0-.39-1.21,1.34,1.34,0,0,0-1-.42,1.83,1.83,0,0,0-1.22.47A2.71,2.71,0,0,0,348.93,82.25Z"/><path class="cls-4" d="M354,85.85l1.28-6.13h.92L356,81a4.53,4.53,0,0,1,.93-1,1.5,1.5,0,0,1,.92-.34,1.82,1.82,0,0,1,.77.23l-.42,1a1,1,0,0,0-.6-.2,1.59,1.59,0,0,0-1.12.61,4.61,4.61,0,0,0-.91,2.2L355,85.85Z"/><path class="cls-4" d="M357.82,85.85l.25-1.19h1.18L359,85.85Z"/><path class="cls-4" d="M361.11,85.85l.24-1.19h1.19l-.26,1.19Z"/><path class="cls-4" d="M364.39,85.85l.25-1.19h1.18l-.26,1.19Z"/><path class="cls-5" d="M251.5,19.41h14.91v50.3H251.5Z"/><path class="cls-5" d="M270.32,19.41h14.87v6.86l-14.87,8.49Zm0,20,14.87-8.49v38.8H270.32Z"/><path class="cls-6" d="M365.76,52.32q0-7.68-2.52-12.46A17.29,17.29,0,0,0,360,35.52a17.63,17.63,0,0,0-4.11-3Q351.07,30,342.74,30c-6.52,0-11.68,1.72-15.52,5.13-.19.17-.39.32-.57.5q-5.83,5.63-5.83,14.72a20.79,20.79,0,0,0,2.9,11.13c.08.12.16.23.23.35a20.5,20.5,0,0,1-2.76-3.57,20.79,20.79,0,0,1-2.91-11.12q0-9.11,5.83-14.73c.08-.08.17-.14.25-.21a13.6,13.6,0,0,0-7.92-2.2,16.53,16.53,0,0,0-7.75,1.66,20.8,20.8,0,0,0-6.29,5.54V30.91H288.56v38.8h14.87V51.08q0-5.3,1.68-7.35a5.4,5.4,0,0,1,4.38-2,4.81,4.81,0,0,1,3.8,1.51c.91,1,1.36,2.74,1.36,5.17V69.71h14.94V67.59a16.14,16.14,0,0,0,1.46.83q4.43,2.17,12.13,2.17,8.88,0,13.63-2.54a20.93,20.93,0,0,0,8.11-8.39l-4.37-.4-10.28-.95a9.73,9.73,0,0,1-2.6,2.45,8.43,8.43,0,0,1-4.16,1.1,7.05,7.05,0,0,1-5.63-2.52,6.71,6.71,0,0,1-1.13-2,13.08,13.08,0,0,1-.81-3.39h29.82ZM336,46.88a14.08,14.08,0,0,1,.68-3.22,7.16,7.16,0,0,1,1-2,6.71,6.71,0,0,1,5.66-2.81,7.09,7.09,0,0,1,3.9,1,5.56,5.56,0,0,1,1.05.83c1.26,1.24,2,3.3,2.33,6.18Z"/><path class="cls-4" d="M244.75,33.7c-2.32-2.45-5.55-3.67-9.66-3.67a16.53,16.53,0,0,0-7.75,1.66,20.66,20.66,0,0,0-6.28,5.54V30.91H208.34a17.68,17.68,0,0,1,2.51,2.31,19.74,19.74,0,0,1,4.83,13.52,20.49,20.49,0,0,1-3,11,22,22,0,0,0,1.3-7.64A19.74,19.74,0,0,0,209.2,36.6a17.93,17.93,0,0,0-2-1.91c-3.89-3.26-9.14-4.91-15.77-4.91q-10.27,0-16.32,5.81A19.82,19.82,0,0,0,172,39.44a20.27,20.27,0,0,0-2.93,10.9,19.24,19.24,0,0,0,7.14,15.55q5.82,4.8,15.26,4.79c6.58,0,11.81-1.7,15.73-5.05v4.08h14.87V51.08q0-5.3,1.68-7.35a5.41,5.41,0,0,1,4.39-2A4.83,4.83,0,0,1,232,43.2c.9,1,1.35,2.74,1.35,5.17V69.71h14.94V45.05Q248.24,37.37,244.75,33.7Zm-58.5,8.92h0a6.79,6.79,0,0,1,5.41-2.52,6.54,6.54,0,0,1,5.2,2.49c1.4,1.65,2.1,4.18,2.1,7.57a19,19,0,0,1-.5,4.62,8.33,8.33,0,0,1-1.58,3.3,6.94,6.94,0,0,1-10.65,0c-1.42-1.67-2.12-4.25-2.12-7.73S184.82,44.31,186.25,42.62Z"/></g></g></svg>